<?xml version="1.0" encoding="utf-8"?>
<!-- Generator: Adobe Illustrator 23.0.2, SVG Export Plug-In . SVG Version: 6.00 Build 0)  -->
<svg version="1.1" id="Camada_1" xmlns="http://www.w3.org/2000/svg" xmlns:xlink="http://www.w3.org/1999/xlink" x="0px" y="0px"
	 viewBox="0 0 395.77 390.4" style="enable-background:new 0 0 395.77 390.4;" xml:space="preserve">
<style type="text/css">
	.st0{fill:#C0D88C;}
	.st1{fill:#575757;}
	.st2{fill:#2D88C6;}
	.st3{opacity:0.64;}
	.st4{fill:#FFFFFF;}
	.st5{fill:#4D9FD8;}
</style>
<g>
	<g>
		<path class="st0" d="M197.53,381.03c-43,0-79.64-5.72-108.89-17c-23.28-8.98-41.95-21.47-55.49-37.14
			C10.2,300.35,9.94,273.64,9.94,273.37V92.15h375.9v181.23c0,0.27-0.33,27.19-23.49,53.73c-13.62,15.61-32.37,28.06-55.73,37
			C277.29,375.34,240.59,381.03,197.53,381.03z"/>
		<g>
			<path class="st1" d="M383.84,94.15v179.22c0,0.26-0.39,26.65-23.18,52.64c-13.43,15.31-31.92,27.53-54.96,36.32
				c-29.06,11.09-65.46,16.71-108.16,16.71c-42.55,0-78.8-5.62-107.75-16.7c-22.95-8.79-41.37-21-54.75-36.32
				c-22.71-25.99-23.09-52.38-23.09-52.63V94.15H383.84 M387.84,90.15H7.94v183.23c0,0,0,109.65,189.6,109.65
				c190.3,0,190.3-109.65,190.3-109.65V90.15L387.84,90.15z"/>
		</g>
	</g>
	<g>
		<path class="st2" d="M387.84,273.37c0,0,0,109.65-190.3,109.65c-189.6,0-189.6-109.65-189.6-109.65V90.15h379.9V273.37z"/>
	</g>
	<g class="st3">
		<path class="st4" d="M387.84,46.28c0-15.95-13.05-29.01-29.01-29.01H36.94c-15.95,0-29.01,13.05-29.01,29.01v0
			c0,0,0,102.24,0,102.24s170.15,70.06,189.95,70.06s189.95-70.06,189.95-70.06S387.84,46.28,387.84,46.28L387.84,46.28z"/>
	</g>
	<g>
		<path class="st5" d="M387.84,36.38c0-15.95-13.05-29.01-29.01-29.01H36.94c-15.95,0-29.01,13.05-29.01,29.01v0
			c0,0,0,102.24,0,102.24s170.15,70.06,189.95,70.06s189.95-70.06,189.95-70.06S387.84,36.38,387.84,36.38L387.84,36.38z"/>
	</g>
</g>
</svg>
